<?xml version="1.0" encoding="UTF-8"?>
<!DOCTYPE svg PUBLIC "-//W3C//DTD SVG 1.1//EN" "http://www.w3.org/Graphics/SVG/1.1/DTD/svg11.dtd">
<svg xmlns="http://www.w3.org/2000/svg" version="1.1" width="64px" height="64px" style="shape-rendering:geometricPrecision; text-rendering:geometricPrecision; image-rendering:optimizeQuality; fill-rule:evenodd; clip-rule:evenodd" xmlns:xlink="http://www.w3.org/1999/xlink">
<g><path style="opacity:0.941" fill="#246bff" d="M 27.5,18.5 C 26.5,18.5 25.5,18.5 24.5,18.5C 23.8333,18.5 23.1667,18.5 22.5,18.5C 18.5791,15.8572 14.5791,15.8572 10.5,18.5C 9.83333,17.8333 9.16667,17.1667 8.5,16.5C 12.9432,14.5344 17.6099,14.0344 22.5,15C 24.5844,15.6972 26.2511,16.8639 27.5,18.5 Z"/></g>
<g><path style="opacity:0.993" fill="#67beff" d="M 22.5,18.5 C 21.8333,18.5 21.5,18.8333 21.5,19.5C 17.6815,18.045 14.0148,18.3783 10.5,20.5C 10.5,19.8333 10.1667,19.5 9.5,19.5C 9.5,18.8333 9.83333,18.5 10.5,18.5C 14.5791,15.8572 18.5791,15.8572 22.5,18.5 Z"/></g>
<g><path style="opacity:0.921" fill="#206aff" d="M 36.5,16.5 C 36.1583,17.3382 35.4916,17.6716 34.5,17.5C 33.5084,17.3284 32.8417,17.6618 32.5,18.5C 31.2921,17.7659 29.9587,17.4326 28.5,17.5C 28.3893,16.8826 28.056,16.3826 27.5,16C 30.6965,15.1955 33.6965,15.3622 36.5,16.5 Z"/></g>
<g><path style="opacity:0.922" fill="#206aff" d="M 59.5,17.5 C 58.0413,17.4326 56.7079,17.7659 55.5,18.5C 55.1583,17.6618 54.4916,17.3284 53.5,17.5C 52.5,17.5 51.5,17.5 50.5,17.5C 50.6107,16.8826 50.944,16.3826 51.5,16C 54.5,15.3333 57.5,15.3333 60.5,16C 59.944,16.3826 59.6107,16.8826 59.5,17.5 Z"/></g>
<g><path style="opacity:1" fill="#6db8ff" d="M 21.5,19.5 C 21.5,18.8333 21.8333,18.5 22.5,18.5C 23.1667,18.5 23.8333,18.5 24.5,18.5C 26.6037,20.3718 27.937,22.7052 28.5,25.5C 28.1667,25.5 27.8333,25.5 27.5,25.5C 26.5275,23.8608 25.1942,22.5274 23.5,21.5C 23.1667,20.5 22.5,19.8333 21.5,19.5 Z"/></g>
<g><path style="opacity:0.878" fill="#6fb7ff" d="M 34.5,17.5 C 36.1468,20.4735 38.1468,23.1401 40.5,25.5C 40.5,25.8333 40.5,26.1667 40.5,26.5C 40.5,27.1667 40.1667,27.5 39.5,27.5C 38.5,26.1667 37.5,24.8333 36.5,23.5C 35.1667,21.8333 33.8333,20.1667 32.5,18.5C 32.8417,17.6618 33.5084,17.3284 34.5,17.5 Z"/></g>
<g><path style="opacity:1" fill="#71baff" d="M 53.5,17.5 C 54.4916,17.3284 55.1583,17.6618 55.5,18.5C 54.1667,20.1667 52.8333,21.8333 51.5,23.5C 50.5,24.8333 49.5,26.1667 48.5,27.5C 47.8333,27.5 47.5,27.1667 47.5,26.5C 47.5,26.1667 47.5,25.8333 47.5,25.5C 49.8532,23.1401 51.8532,20.4735 53.5,17.5 Z"/></g>
<g><path style="opacity:1" fill="#3763ff" d="M 21.5,19.5 C 22.5,19.8333 23.1667,20.5 23.5,21.5C 22.5,21.5 21.5,21.5 20.5,21.5C 18.1667,21.5 15.8333,21.5 13.5,21.5C 12.5,21.5 11.5,21.5 10.5,21.5C 10.5,21.1667 10.5,20.8333 10.5,20.5C 14.0148,18.3783 17.6815,18.045 21.5,19.5 Z"/></g>
<g><path style="opacity:0.76" fill="#3763ff" d="M 28.5,18.5 C 28.5,18.1667 28.5,17.8333 28.5,17.5C 29.9587,17.4326 31.2921,17.7659 32.5,18.5C 33.8333,20.1667 35.1667,21.8333 36.5,23.5C 35.5,23.5 34.5,23.5 33.5,23.5C 32.0613,21.6397 30.3947,19.973 28.5,18.5 Z"/></g>
<g><path style="opacity:0.602" fill="#3963ff" d="M 50.5,17.5 C 51.5,17.5 52.5,17.5 53.5,17.5C 51.8532,20.4735 49.8532,23.1401 47.5,25.5C 47.1583,24.6618 46.4916,24.3284 45.5,24.5C 46.8109,21.8646 48.4776,19.5313 50.5,17.5 Z"/></g>
<g><path style="opacity:0.797" fill="#3762ff" d="M 59.5,17.5 C 57.823,19.5398 56.1563,21.5398 54.5,23.5C 53.5,23.5 52.5,23.5 51.5,23.5C 52.8333,21.8333 54.1667,20.1667 55.5,18.5C 56.7079,17.7659 58.0413,17.4326 59.5,17.5 Z"/></g>
<g><path style="opacity:1" fill="#73baff" d="M 9.5,19.5 C 10.1667,19.5 10.5,19.8333 10.5,20.5C 10.5,20.8333 10.5,21.1667 10.5,21.5C 8.17823,22.8021 6.8449,24.8021 6.5,27.5C 6.5,27.8333 6.5,28.1667 6.5,28.5C 5.59603,27.791 5.26269,26.791 5.5,25.5C 5.8449,22.8021 7.17823,20.8021 9.5,19.5 Z"/></g>
<g><path style="opacity:0.953" fill="#3a62ff" d="M 36.5,16.5 C 38.8532,18.8599 40.8532,21.5265 42.5,24.5C 41.5084,24.3284 40.8417,24.6618 40.5,25.5C 38.1468,23.1401 36.1468,20.4735 34.5,17.5C 35.4916,17.6716 36.1583,17.3382 36.5,16.5 Z"/></g>
<g><path style="opacity:0.706" fill="#3b5fff" d="M 8.5,16.5 C 9.16667,17.1667 9.83333,17.8333 10.5,18.5C 9.83333,18.5 9.5,18.8333 9.5,19.5C 7.17823,20.8021 5.8449,22.8021 5.5,25.5C 5.16667,25.5 4.83333,25.5 4.5,25.5C 4.16667,24.8333 3.83333,24.1667 3.5,23.5C 4.01019,20.3257 5.67686,17.9923 8.5,16.5 Z"/></g>
<g><path style="opacity:0.973" fill="#455fff" d="M 24.5,18.5 C 25.5,18.5 26.5,18.5 27.5,18.5C 27.8333,18.5 28.1667,18.5 28.5,18.5C 29.1667,20.1667 29.8333,21.8333 30.5,23.5C 29.8902,24.391 29.5569,25.391 29.5,26.5C 28.8333,26.5 28.5,26.1667 28.5,25.5C 27.937,22.7052 26.6037,20.3718 24.5,18.5 Z"/></g>
<g><path style="opacity:0.809" fill="#555aff" d="M 33.5,23.5 C 34.5,23.5 35.5,23.5 36.5,23.5C 37.5,24.8333 38.5,26.1667 39.5,27.5C 39.5,27.8333 39.5,28.1667 39.5,28.5C 38.8333,28.5 38.1667,28.5 37.5,28.5C 35.457,27.4206 34.1237,25.754 33.5,23.5 Z"/></g>
<g><path style="opacity:0.762" fill="#5759ff" d="M 42.5,24.5 C 43.5,25.8333 44.5,25.8333 45.5,24.5C 46.4916,24.3284 47.1583,24.6618 47.5,25.5C 47.5,25.8333 47.5,26.1667 47.5,26.5C 46.1154,27.5736 44.9487,28.9069 44,30.5C 43.0513,28.9069 41.8846,27.5736 40.5,26.5C 40.5,26.1667 40.5,25.8333 40.5,25.5C 40.8417,24.6618 41.5084,24.3284 42.5,24.5 Z"/></g>
<g><path style="opacity:0.832" fill="#5455ff" d="M 51.5,23.5 C 52.5,23.5 53.5,23.5 54.5,23.5C 53.5589,25.7721 52.2255,27.7721 50.5,29.5C 49.5,29.5 48.5,29.5 47.5,29.5C 47.8333,28.8333 48.1667,28.1667 48.5,27.5C 49.5,26.1667 50.5,24.8333 51.5,23.5 Z"/></g>
<g><path style="opacity:0.79" fill="#4b55ff" d="M 20.5,21.5 C 21.5,21.5 22.5,21.5 23.5,21.5C 25.1942,22.5274 26.5275,23.8608 27.5,25.5C 27.5,26.1667 27.5,26.8333 27.5,27.5C 26.609,26.8902 25.609,26.5569 24.5,26.5C 23.1667,24.8333 21.8333,23.1667 20.5,21.5 Z"/></g>
<g><path style="opacity:0.012" fill="#4e54ff" d="M 10.5,21.5 C 11.5,21.5 12.5,21.5 13.5,21.5C 12.5423,22.9616 11.3756,24.2949 10,25.5C 9.50999,26.7932 9.34332,28.1266 9.5,29.5C 8.77765,28.4489 7.77765,27.7822 6.5,27.5C 6.8449,24.8021 8.17823,22.8021 10.5,21.5 Z"/></g>
<g><path style="opacity:0.842" fill="#704aff" d="M 37.5,28.5 C 38.1667,28.5 38.8333,28.5 39.5,28.5C 40.8333,29.1667 41.8333,30.1667 42.5,31.5C 42.2624,33.4044 41.2624,34.7377 39.5,35.5C 38.5084,35.6716 37.8417,35.3382 37.5,34.5C 37.9528,33.5416 38.6195,32.7083 39.5,32C 38.1772,31.1841 37.5106,30.0174 37.5,28.5 Z"/></g>
<g><path style="opacity:1" fill="#99b4ff" d="M 40.5,26.5 C 41.8846,27.5736 43.0513,28.9069 44,30.5C 44.9487,28.9069 46.1154,27.5736 47.5,26.5C 47.5,27.1667 47.8333,27.5 48.5,27.5C 48.1667,28.1667 47.8333,28.8333 47.5,29.5C 46.5,29.8333 45.8333,30.5 45.5,31.5C 44.5,32.8333 43.5,32.8333 42.5,31.5C 41.8333,30.1667 40.8333,29.1667 39.5,28.5C 39.5,28.1667 39.5,27.8333 39.5,27.5C 40.1667,27.5 40.5,27.1667 40.5,26.5 Z"/></g>
<g><path style="opacity:0.931" fill="#7149ff" d="M 47.5,29.5 C 48.5,29.5 49.5,29.5 50.5,29.5C 50.0472,30.4584 49.3805,31.2917 48.5,32C 49.3805,32.7083 50.0472,33.5416 50.5,34.5C 50.1583,35.3382 49.4916,35.6716 48.5,35.5C 47.0256,34.5637 46.0256,33.2303 45.5,31.5C 45.8333,30.5 46.5,29.8333 47.5,29.5 Z"/></g>
<g><path style="opacity:1" fill="#684bfe" d="M 3.5,23.5 C 3.83333,24.1667 4.16667,24.8333 4.5,25.5C 4.5,27.8333 4.5,30.1667 4.5,32.5C 4.5,32.8333 4.5,33.1667 4.5,33.5C 3.83333,33.5 3.16667,33.5 2.5,33.5C 2.18723,29.9581 2.52056,26.6248 3.5,23.5 Z"/></g>
<g><path style="opacity:1" fill="#a4b8ff" d="M 4.5,25.5 C 4.83333,25.5 5.16667,25.5 5.5,25.5C 5.26269,26.791 5.59603,27.791 6.5,28.5C 6.5,29.5 6.5,30.5 6.5,31.5C 13.5,31.5 20.5,31.5 27.5,31.5C 27.5,30.1667 27.5,28.8333 27.5,27.5C 27.5,26.8333 27.5,26.1667 27.5,25.5C 27.8333,25.5 28.1667,25.5 28.5,25.5C 28.5,26.1667 28.8333,26.5 29.5,26.5C 29.5,28.5 29.5,30.5 29.5,32.5C 21.1667,32.5 12.8333,32.5 4.5,32.5C 4.5,30.1667 4.5,27.8333 4.5,25.5 Z"/></g>
<g><path style="opacity:1" fill="#664cfe" d="M 24.5,26.5 C 25.609,26.5569 26.609,26.8902 27.5,27.5C 27.5,28.8333 27.5,30.1667 27.5,31.5C 20.5,31.5 13.5,31.5 6.5,31.5C 6.5,30.5 6.5,29.5 6.5,28.5C 6.5,28.1667 6.5,27.8333 6.5,27.5C 7.77765,27.7822 8.77765,28.4489 9.5,29.5C 14.5,29.5 19.5,29.5 24.5,29.5C 24.5,28.5 24.5,27.5 24.5,26.5 Z"/></g>
<g><path style="opacity:1" fill="#694bfe" d="M 30.5,23.5 C 31.4794,26.6248 31.8128,29.9581 31.5,33.5C 30.8333,33.5 30.1667,33.5 29.5,33.5C 29.5,33.1667 29.5,32.8333 29.5,32.5C 29.5,30.5 29.5,28.5 29.5,26.5C 29.5569,25.391 29.8902,24.391 30.5,23.5 Z"/></g>
<g><path style="opacity:1" fill="#b4b6ff" d="M 4.5,32.5 C 12.8333,32.5 21.1667,32.5 29.5,32.5C 29.5,32.8333 29.5,33.1667 29.5,33.5C 21.8333,33.5 14.1667,33.5 6.5,33.5C 6.5,35.1667 6.5,36.8333 6.5,38.5C 6.5,39.1667 6.16667,39.5 5.5,39.5C 4.85048,37.5648 4.51715,35.5648 4.5,33.5C 4.5,33.1667 4.5,32.8333 4.5,32.5 Z"/></g>
<g><path style="opacity:1" fill="#bbadff" d="M 42.5,31.5 C 43.5,32.8333 44.5,32.8333 45.5,31.5C 46.0256,33.2303 47.0256,34.5637 48.5,35.5C 49.1667,36.8333 49.8333,38.1667 50.5,39.5C 50.5,40.1667 50.1667,40.5 49.5,40.5C 47.6753,38.1969 45.8419,35.8636 44,33.5C 42.3308,34.8463 41.1642,36.513 40.5,38.5C 39.5,38.8333 38.8333,39.5 38.5,40.5C 37.8333,40.5 37.5,40.1667 37.5,39.5C 38.1667,38.1667 38.8333,36.8333 39.5,35.5C 41.2624,34.7377 42.2624,33.4044 42.5,31.5 Z"/></g>
<g><path style="opacity:0.965" fill="#7f42ff" d="M 29.5,33.5 C 30.1667,33.5 30.8333,33.5 31.5,33.5C 24.3899,35.1524 17.0566,36.1524 9.5,36.5C 8.16667,36.5 7.5,37.1667 7.5,38.5C 7.16667,38.5 6.83333,38.5 6.5,38.5C 6.5,36.8333 6.5,35.1667 6.5,33.5C 14.1667,33.5 21.8333,33.5 29.5,33.5 Z"/></g>
<g><path style="opacity:0.911" fill="#9040ff" d="M 49.5,40.5 C 48.5,40.5 47.5,40.5 46.5,40.5C 45.2101,39.9423 44.3768,38.9423 44,37.5C 43.6012,37.7284 43.4346,38.0618 43.5,38.5C 42.5,38.5 41.5,38.5 40.5,38.5C 41.1642,36.513 42.3308,34.8463 44,33.5C 45.8419,35.8636 47.6753,38.1969 49.5,40.5 Z"/></g>
<g><path style="opacity:0.98" fill="#9539ff" d="M 9.5,36.5 C 9.73286,38.0618 10.3995,39.3951 11.5,40.5C 11.1583,41.3382 10.4916,41.6716 9.5,41.5C 8.09368,41.0269 7.42702,40.0269 7.5,38.5C 7.5,37.1667 8.16667,36.5 9.5,36.5 Z"/></g>
<g><path style="opacity:0.899" fill="#9436ff" d="M 30.5,41.5 C 29.5,41.5 28.5,41.5 27.5,41.5C 28.463,40.6365 28.463,39.9698 27.5,39.5C 26.4822,40.1925 25.4822,40.8592 24.5,41.5C 23.5084,41.6716 22.8417,41.3382 22.5,40.5C 23.6923,38.0777 25.6923,37.0777 28.5,37.5C 29.8333,37.6667 31.1667,37.8333 32.5,38C 31.695,39.1127 31.0283,40.2794 30.5,41.5 Z"/></g>
<g><path style="opacity:0.831" fill="#9736ff" d="M 37.5,34.5 C 37.8417,35.3382 38.5084,35.6716 39.5,35.5C 38.8333,36.8333 38.1667,38.1667 37.5,39.5C 36.5,39.8333 35.8333,40.5 35.5,41.5C 34.5,41.5 33.5,41.5 32.5,41.5C 33.8109,38.8646 35.4776,36.5313 37.5,34.5 Z"/></g>
<g><path style="opacity:0.833" fill="#9c3bff" d="M 50.5,34.5 C 52.5224,36.5313 54.1891,38.8646 55.5,41.5C 55.1667,42.1667 54.8333,42.8333 54.5,43.5C 53.1667,42.1667 51.8333,40.8333 50.5,39.5C 49.8333,38.1667 49.1667,36.8333 48.5,35.5C 49.4916,35.6716 50.1583,35.3382 50.5,34.5 Z"/></g>
<g><path style="opacity:1" fill="#d79cff" d="M 6.5,38.5 C 6.83333,38.5 7.16667,38.5 7.5,38.5C 7.42702,40.0269 8.09368,41.0269 9.5,41.5C 10.1667,42.5 10.8333,43.5 11.5,44.5C 10.8333,44.5 10.5,44.8333 10.5,45.5C 9.16667,44.5 7.83333,43.5 6.5,42.5C 6.44312,41.391 6.10978,40.391 5.5,39.5C 6.16667,39.5 6.5,39.1667 6.5,38.5 Z"/></g>
<g><path style="opacity:0.844" fill="#993aff" d="M 2.5,33.5 C 3.16667,33.5 3.83333,33.5 4.5,33.5C 4.51715,35.5648 4.85048,37.5648 5.5,39.5C 6.10978,40.391 6.44312,41.391 6.5,42.5C 6.16667,43.1667 5.83333,43.8333 5.5,44.5C 2.94498,41.3731 1.94498,37.7065 2.5,33.5 Z"/></g>
<g><path style="opacity:1" fill="#dc9dff" d="M 27.5,41.5 C 26.5,42.8333 25.5,44.1667 24.5,45.5C 23.391,45.5569 22.391,45.8902 21.5,46.5C 21.5,45.8333 21.1667,45.5 20.5,45.5C 22.1392,44.5275 23.4726,43.1942 24.5,41.5C 25.4822,40.8592 26.4822,40.1925 27.5,39.5C 28.463,39.9698 28.463,40.6365 27.5,41.5 Z"/></g>
<g><path style="opacity:0.996" fill="#dd9fff" d="M 37.5,39.5 C 37.5,40.1667 37.8333,40.5 38.5,40.5C 37.8333,41.5 37.1667,42.5 36.5,43.5C 35.5255,44.635 34.3588,45.635 33,46.5C 33.0579,44.5646 33.8912,42.8979 35.5,41.5C 35.8333,40.5 36.5,39.8333 37.5,39.5 Z"/></g>
<g><path style="opacity:0.873" fill="#a538ff" d="M 40.5,38.5 C 41.5,38.5 42.5,38.5 43.5,38.5C 42.1363,40.1911 40.803,41.8577 39.5,43.5C 38.5,43.5 37.5,43.5 36.5,43.5C 37.1667,42.5 37.8333,41.5 38.5,40.5C 38.8333,39.5 39.5,38.8333 40.5,38.5 Z"/></g>
<g><path style="opacity:0.604" fill="#ab2fff" d="M 46.5,40.5 C 47.5,40.5 48.5,40.5 49.5,40.5C 50.925,41.922 51.925,43.5887 52.5,45.5C 51.8333,45.5 51.1667,45.5 50.5,45.5C 48.457,44.4206 47.1237,42.754 46.5,40.5 Z"/></g>
<g><path style="opacity:0.996" fill="#dd9fff" d="M 50.5,39.5 C 51.8333,40.8333 53.1667,42.1667 54.5,43.5C 56.0251,46.4574 55.3584,47.1241 52.5,45.5C 51.925,43.5887 50.925,41.922 49.5,40.5C 50.1667,40.5 50.5,40.1667 50.5,39.5 Z"/></g>
<g><path style="opacity:0.999" fill="#ad30ff" d="M 11.5,40.5 C 15.1667,43.1667 18.8333,43.1667 22.5,40.5C 22.8417,41.3382 23.5084,41.6716 24.5,41.5C 23.4726,43.1942 22.1392,44.5275 20.5,45.5C 17.4299,45.6323 14.4299,45.299 11.5,44.5C 10.8333,43.5 10.1667,42.5 9.5,41.5C 10.4916,41.6716 11.1583,41.3382 11.5,40.5 Z"/></g>
<g><path style="opacity:0.898" fill="#ad2dff" d="M 27.5,41.5 C 28.5,41.5 29.5,41.5 30.5,41.5C 30.5,41.8333 30.5,42.1667 30.5,42.5C 29.6618,42.8417 29.3284,43.5084 29.5,44.5C 28.8333,44.5 28.5,44.8333 28.5,45.5C 28.1667,45.5 27.8333,45.5 27.5,45.5C 26.5,45.5 25.5,45.5 24.5,45.5C 25.5,44.1667 26.5,42.8333 27.5,41.5 Z"/></g>
<g><path style="opacity:0.947" fill="#b42fff" d="M 6.5,42.5 C 7.83333,43.5 9.16667,44.5 10.5,45.5C 11.9952,45.9887 13.3285,46.6554 14.5,47.5C 12.8333,47.5 11.1667,47.5 9.5,47.5C 7.59565,47.2624 6.26231,46.2624 5.5,44.5C 5.83333,43.8333 6.16667,43.1667 6.5,42.5 Z"/></g>
<g><path style="opacity:1" fill="#e3a5ff" d="M 10.5,45.5 C 10.5,44.8333 10.8333,44.5 11.5,44.5C 14.4299,45.299 17.4299,45.6323 20.5,45.5C 21.1667,45.5 21.5,45.8333 21.5,46.5C 19.2362,47.2186 16.9029,47.552 14.5,47.5C 13.3285,46.6554 11.9952,45.9887 10.5,45.5 Z"/></g>
<g><path style="opacity:0.921" fill="#bb2cff" d="M 32.5,41.5 C 33.5,41.5 34.5,41.5 35.5,41.5C 33.8912,42.8979 33.0579,44.5646 33,46.5C 34.3588,45.635 35.5255,44.635 36.5,43.5C 37.5,43.5 38.5,43.5 39.5,43.5C 36.3242,48.7141 32.3242,49.7141 27.5,46.5C 28.1667,46.5 28.5,46.1667 28.5,45.5C 29.1667,45.5 29.5,45.1667 29.5,44.5C 30.3382,44.1583 30.6716,43.4916 30.5,42.5C 31.1667,42.1667 31.8333,41.8333 32.5,41.5 Z"/></g>
<g><path style="opacity:0.921" fill="#bd2aff" d="M 55.5,41.5 C 57.1482,43.4293 58.8149,45.4293 60.5,47.5C 57.8938,48.6517 55.2272,48.8184 52.5,48C 51.6195,47.2917 50.9528,46.4584 50.5,45.5C 51.1667,45.5 51.8333,45.5 52.5,45.5C 55.3584,47.1241 56.0251,46.4574 54.5,43.5C 54.8333,42.8333 55.1667,42.1667 55.5,41.5 Z"/></g>
<g><path style="opacity:0.887" fill="#c027ff" d="M 24.5,45.5 C 25.5,45.5 26.5,45.5 27.5,45.5C 27.5,45.8333 27.5,46.1667 27.5,46.5C 21.5573,49.9835 15.5573,50.3169 9.5,47.5C 11.1667,47.5 12.8333,47.5 14.5,47.5C 16.9029,47.552 19.2362,47.2186 21.5,46.5C 22.391,45.8902 23.391,45.5569 24.5,45.5 Z"/></g>
</svg>
